#!OML:ASF H:\Dans Jumps\Project 1\Capture day 1\Session 1\subject.ASF
:FULLY-SPECIFIED
:DEGREES
623
root 0.555095 17.7063 -1.22194 6.20164 0.573196 -1.55802
lowerback -3.71863 -0.376138 0.50188
upperback 2.30502 -0.594665 1.53633
thorax 4.47674 -0.305195 1.26066
lowerneck -11.8762 0.349684 -1.97198
upperneck 36.8439 0.847608 0.627455
head 14.7046 0.174727 0.74442
rclavicle 2.48481e-016 5.76476e-015
rhumerus -27.5114 -17.7825 -78.4845
rradius 22.4488
rwrist 35.7532
rhand -19.7565 -26.8025
rfingers 7.12502
rthumb 6.57493 -56.6804
lclavicle 2.48481e-016 5.76476e-015
lhumerus -25.4851 -1.88052 89.4362
lradius 17.366
lwrist 7.72477
lhand -24.7663 -5.75378
lfingers 7.12502
lthumb 1.73728 24.2189
rfemur -11.6983 -1.8967 19.8226
rtibia 21.776
rfoot -14.7249 -0.329788
rtoes 15.6956
lfemur -8.56626 7.55523 -18.4246
ltibia 18.4257
lfoot -11.8437 6.45795
ltoes 4.03992
624
root 0.554106 17.7065 -1.22178 6.20024 0.575057 -1.55931
lowerback -3.72926 -0.369243 0.511308
upperback 2.30464 -0.585995 1.53288
thorax 4.48209 -0.300544 1.25241
lowerneck -11.8801 0.348309 -1.97432
upperneck 36.8162 0.845561 0.629878
head 14.6923 0.174233 0.745324
rclavicle 1.2921e-015 9.54166e-015
rhumerus -27.5217 -17.8207 -78.4751
rradius 22.4455
rwrist 35.7346
rhand -19.7313 -26.8019
rfingers 7.12502
rthumb 6.59925 -56.6791
lclavicle 1.2921e-015 9.54166e-015
lhumerus -25.4997 -1.87902 89.451
lradius 17.3619
lwrist 7.68118
lhand -24.8179 -5.74864
lfingers 7.12502
lthumb 1.68739 24.2244
rfemur -11.6943 -1.90416 19.8277
rtibia 21.7701
rfoot -14.7223 -0.322429
rtoes 15.7145
lfemur -8.56534 7.54912 -18.4194
ltibia 18.4274
lfoot -11.8393 6.46084
ltoes 4.04044
625
root 0.553079 17.7067 -1.22148 6.19906 0.576543 -1.55761
lowerback -3.74174 -0.362197 0.517486
upperback 2.30395 -0.576949 1.52905
thorax 4.48818 -0.295799 1.2456
lowerneck -11.8802 0.346768 -1.97427
upperneck 36.787 0.843899 0.628497
head 14.6785 0.173748 0.744254
rclavicle 2.48481e-016 -1.39149e-015
rhumerus -27.5294 -17.8612 -78.4644
rradius 22.4413
rwrist 35.7158
rhand -19.7061 -26.7941
rfingers 7.12502
rthumb 6.62356 -56.6705
lclavicle 2.48481e-016 -1.39149e-015
lhumerus -25.5152 -1.89913 89.4746
lradius 17.3546
lwrist 7.64431
lhand -24.8533 -5.71717
lfingers 7.12502
lthumb 1.65323 24.2562
rfemur -11.6906 -1.91224 19.8294
rtibia 21.7657
rfoot -14.7202 -0.314347
rtoes 15.739
lfemur -8.56193 7.54147 -18.4175
ltibia 18.425
lfoot -11.8329 6.465
ltoes 4.04124
626
root 0.551969 17.7069 -1.22114 6.19862 0.579137 -1.55599
lowerback -3.75399 -0.356538 0.521626
upperback 2.30298 -0.5697 1.52685
thorax 4.49394 -0.292036 1.24151
lowerneck -11.8844 0.346408 -1.97216
upperneck 36.7602 0.844848 0.623521
head 14.6667 0.174141 0.741779
rclavicle 8.94531e-016 -9.93923e-015
rhumerus -27.5354 -17.8915 -78.4554
rradius 22.4404
rwrist 35.6916
rhand -19.6801 -26.7822
rfingers 7.12502
rthumb 6.64869 -56.6578
lclavicle 8.94531e-016 -9.93923e-015
lhumerus -25.5302 -1.92753 89.5036
lradius 17.3454
lwrist 7.60926
lhand -24.9057 -5.69951
lfingers 7.12502
lthumb 1.60265 24.2742
rfemur -11.6881 -1.91876 19.8318
rtibia 21.7623
rfoot -14.7175 -0.310053
rtoes 15.7557
lfemur -8.55756 7.53208 -18.4149
ltibia 18.4192
lfoot -11.8262 6.46964
ltoes 4.05174
627
root 0.550848 17.7072 -1.22081 6.19909 0.581847 -1.55393
lowerback -3.76528 -0.351662 0.524426
upperback 2.3003 -0.563422 1.52574
thorax 4.4974 -0.288809 1.23921
lowerneck -11.8854 0.346848 -1.96894
upperneck 36.732 0.847553 0.615865
head 14.6536 0.175092 0.738241
rclavicle -1.88845e-015 -3.18055e-015
rhumerus -27.5444 -17.9162 -78.4454
rradius 22.4424
rwrist 35.6675
rhand -19.6525 -26.7727
rfingers 7.12502
rthumb 6.67529 -56.6475
lclavicle -1.88845e-015 -3.18055e-015
lhumerus -25.5465 -1.95438 89.5345
lradius 17.3365
lwrist 7.57223
lhand -24.984 -5.71236
lfingers 7.12502
lthumb 1.527 24.2619
rfemur -11.6869 -1.9265 19.8338
rtibia 21.7599
rfoot -14.7138 -0.306105
rtoes 15.7661
lfemur -8.55272 7.52276 -18.4128
ltibia 18.411
lfoot -11.8187 6.47352
ltoes 4.0628
628
root 0.549704 17.7074 -1.22049 6.2007 0.584811 -1.55155
lowerback -3.77506 -0.347197 0.526416
upperback 2.29607 -0.557625 1.52519
thorax 4.49842 -0.285851 1.23793
lowerneck -11.889 0.347616 -1.96375
upperneck 36.705 0.851 0.606195
head 14.6417 0.176342 0.733664
rclavicle 0 1.19271e-015
rhumerus -27.5559 -17.9318 -78.4363
rradius 22.4475
rwrist 35.6415
rhand -19.6283 -26.7626
rfingers 7.12502
rthumb 6.69865 -56.6366
lclavicle 0 1.19271e-015
lhumerus -25.562 -1.96815 89.5622
lradius 17.3309
lwrist 7.53054
lhand -25.0311 -5.69043
lfingers 7.12502
lthumb 1.48151 24.2842
rfemur -11.6867 -1.93563 19.8356
rtibia 21.7577
rfoot -14.7095 -0.301415
rtoes 15.7701
lfemur -8.54854 7.51448 -18.4109
ltibia 18.4021
lfoot -11.813 6.4756
ltoes 4.07865
